# xmcd
#
# Track frame offsets: 
#        183
#        11020
#        20818
#        38155
#        54600
#        67495
#        79845
#        93148
#        104060
#        121285
#        135418
#        147105
#        161380
#        177898
#        191373
#        211530
#        225623
#        236893
#        250240
#        263030
#
# Disc length: 3795 seconds
#
# Revision: 2
# Processed by: cddbd v1.5.2PL0 Copyright (c) Steve Scherf et al.
# Submitted via: ExactAudioCopyFreeDBPlugin 1.0
#
DISCID=130ed114
DTITLE=Charlie Rich - The Most Beautiful Girl- 20 Greatest Hits
DYEAR=1993
DGENRE=Country
TTITLE0=Lonely Weekends
TTITLE1=Mohair Sam
TTITLE2=Life Has Its Little Ups And Downs
TTITLE3=Who Will The Next Fool Be
TTITLE4=I Take It On Home
TTITLE5=Behind Closed Doors
TTITLE6=The Most Beautiful Girl
TTITLE7=There Won't Be Anymore
TTITLE8=My Elusive Dreams
TTITLE9=My Mountain Dew
TTITLE10=Rollin' With The Flow
TTITLE11=On My Knees
TTITLE12=Big Boss Man
TTITLE13=Sittin' And Thinkin'
TTITLE14=You Don't Know Me
TTITLE15=Break-Up
TTITLE16=Pass On By
TTITLE17=Good Time Charlie's Got The Bblues
TTITLE18=C.C. Rider
TTITLE19=I Feel Like Going Home
EXTD=
EXTT0=
EXTT1=
EXTT2=
EXTT3=
EXTT4=
EXTT5=
EXTT6=
EXTT7=
EXTT8=
EXTT9=
EXTT10=
EXTT11=
EXTT12=
EXTT13=
EXTT14=
EXTT15=
EXTT16=
EXTT17=
EXTT18=
EXTT19=
PLAYORDER=
